<svg width="516" height="516" viewBox="0 0 516 516" fill="none" xmlns="http://www.w3.org/2000/svg">
<path d="M2.49243 257.996C2.49243 399.11 116.884 513.501 257.996 513.501C399.11 513.501 513.507 399.106 513.507 257.996C513.507 116.884 399.11 2.49256 257.996 2.49256C116.884 2.49256 2.49243 116.884 2.49243 257.996Z" fill="white" stroke="#AA0030" stroke-width="4"/>
<path d="M451.284 105.872C432.531 142.546 397.997 156.521 362.624 164.365C310.959 175.823 258.12 182.219 205.709 190.323C154.802 198.194 105.907 210.667 65.5211 244.746C38.9343 267.182 25.1015 296.911 11.9489 329.68C9.30846 317.914 5.7204 306.266 4.17265 294.363C-13.2815 160.122 76.1402 35.4565 210.839 7.45795C247.273 -0.115061 284.35 0.207728 321.081 8.33255C342.991 13.1788 358.888 25.2881 363.098 46.978C367.325 68.7597 353.244 84.8472 335.485 92.8968C305.555 106.465 273.888 116.448 242.608 126.947C222.437 133.718 201.653 138.719 178.104 145.372C182.6 149.052 184.521 151.866 186.003 151.658C244.753 143.412 303.555 135.435 362.103 125.951C373.801 124.056 385.146 117.292 395.549 111.002C416.195 98.5226 423.661 82.0694 416.72 57.296C434.64 71.632 453.368 79.9114 451.284 105.872Z" fill="#C00445"/>
<path d="M104.912 461.264C73.4763 443.361 52.6879 414.672 42.8258 384.46C29.9681 323.309 59.6284 273.977 125.641 253.107C167.284 239.943 211.374 233.41 254.817 226.72C312.009 217.913 369.305 209.537 417.449 175.367C438.373 160.515 460.752 147.92 470.992 117.712C479.45 137.313 497.754 161.479 503.642 184.204C530.661 288.471 505.243 379.241 422.429 450.902C356.773 507.715 278.473 524.758 193.101 507.668C166.702 502.383 154.22 480.534 146.026 457.433C129.373 410.492 146.941 363.012 194.299 335.357C217.556 321.775 244.618 314.523 269.74 303.91C301.772 290.376 333.661 276.509 365.411 262.353C370.9 259.907 375.391 255.311 378.474 248.426C363.743 252.702 349.219 257.922 334.243 261.079C286.892 271.061 239.32 280.021 191.94 289.876C165.394 295.398 140.122 304.469 119.23 322.166C83.1529 352.727 73.0613 400.001 92.1708 446.478C94.3843 451.86 99.6685 454.974 101.328 461.264C100.615 462.234 104.912 461.264 104.912 461.264Z" fill="#C00344"/>
<path fill-rule="evenodd" clip-rule="evenodd" d="M278.869 458.457L285.34 438.465C286.655 434.399 289.864 431.235 293.945 429.988L314.035 423.81C316.816 422.96 316.838 419.037 314.08 418.143L294.081 411.671C290.022 410.356 286.858 407.147 285.603 403.066L279.432 382.976C278.583 380.203 274.66 380.173 273.765 382.938L267.294 402.931C265.979 406.989 262.77 410.153 258.689 411.409L238.599 417.579C235.818 418.436 235.788 422.352 238.554 423.246L258.553 429.717C262.612 431.032 265.776 434.249 267.031 438.33L273.202 458.412C274.051 461.193 277.974 461.223 278.869 458.457Z" fill="#FAFAFA"/>
</svg>
